<?xml version="1.0" encoding="UTF-8"?>
<!DOCTYPE svg PUBLIC "-//W3C//DTD SVG 1.1//EN" "http://www.w3.org/Graphics/SVG/1.1/DTD/svg11.dtd">
<svg xmlns="http://www.w3.org/2000/svg" version="1.1" width="555px" height="102px" style="shape-rendering:geometricPrecision; text-rendering:geometricPrecision; image-rendering:optimizeQuality; fill-rule:evenodd; clip-rule:evenodd" xmlns:xlink="http://www.w3.org/1999/xlink">
<g><path style="opacity:0.004" fill="#000000" d="M 152.5,-0.5 C 152.833,-0.5 153.167,-0.5 153.5,-0.5C 153.315,0.170143 152.981,0.170143 152.5,-0.5 Z"/></g>
<g><path style="opacity:0.004" fill="#000000" d="M 47.5,0.5 C 48.8333,1.16667 48.8333,1.16667 47.5,0.5 Z"/></g>
<g><path style="opacity:0.004" fill="#000000" d="M 32.5,2.5 C 33.8333,3.16667 33.8333,3.16667 32.5,2.5 Z"/></g>
<g><path style="opacity:0.004" fill="#000000" d="M 272.5,2.5 C 273.833,3.16667 273.833,3.16667 272.5,2.5 Z"/></g>
<g><path style="opacity:0.004" fill="#000000" d="M 194.5,3.5 C 195.833,4.16667 195.833,4.16667 194.5,3.5 Z"/></g>
<g><path style="opacity:0.004" fill="#000000" d="M 29.5,4.5 C 30.8333,5.16667 30.8333,5.16667 29.5,4.5 Z"/></g>
<g><path style="opacity:0.004" fill="#000000" d="M 536.5,6.5 C 537.833,7.16667 537.833,7.16667 536.5,6.5 Z"/></g>
<g><path style="opacity:0.004" fill="#000000" d="M 491.5,7.5 C 492.833,8.16667 492.833,8.16667 491.5,7.5 Z"/></g>
<g><path style="opacity:0.004" fill="#000000" d="M 83.5,8.5 C 84.8333,9.16667 84.8333,9.16667 83.5,8.5 Z"/></g>
<g><path style="opacity:0.004" fill="#000000" d="M 125.5,8.5 C 126.833,9.16667 126.833,9.16667 125.5,8.5 Z"/></g>
<g><path style="opacity:0.004" fill="#000000" d="M 59.5,9.5 C 60.8333,10.1667 60.8333,10.1667 59.5,9.5 Z"/></g>
<g><path style="opacity:0.004" fill="#000000" d="M 281.5,9.5 C 282.833,10.1667 282.833,10.1667 281.5,9.5 Z"/></g>
<g><path style="opacity:0.004" fill="#000000" d="M 131.5,11.5 C 132.833,12.1667 132.833,12.1667 131.5,11.5 Z"/></g>
<g><path style="opacity:0.004" fill="#000000" d="M 506.5,14.5 C 507.833,15.1667 507.833,15.1667 506.5,14.5 Z"/></g>
<g><path style="opacity:0.004" fill="#000000" d="M 2.5,15.5 C 3.83333,16.1667 3.83333,16.1667 2.5,15.5 Z"/></g>
<g><path style="opacity:0.917" fill="#475e8f" d="M 314.5,15.5 C 308.642,15.1778 302.975,15.5111 297.5,16.5C 285.495,16.3335 273.495,16.5001 261.5,17C 257.975,17.1787 254.641,17.6787 251.5,18.5C 243.784,18.8672 236.118,19.5339 228.5,20.5C 238.102,17.2112 248.102,15.5446 258.5,15.5C 277.328,14.3607 295.995,14.3607 314.5,15.5 Z"/></g>
<g><path style="opacity:0.004" fill="#000000" d="M 227.5,16.5 C 228.833,17.1667 228.833,17.1667 227.5,16.5 Z"/></g>
<g><path style="opacity:0.004" fill="#000000" d="M 23.5,17.5 C 24.8333,18.1667 24.8333,18.1667 23.5,17.5 Z"/></g>
<g><path style="opacity:1" fill="#3a5292" d="M 314.5,15.5 C 324.226,15.5905 333.892,16.4239 343.5,18C 346.675,18.4932 349.341,19.6598 351.5,21.5C 349.5,21.5 347.5,21.5 345.5,21.5C 338.504,21.1064 331.504,20.7731 324.5,20.5C 319.859,19.8734 315.193,19.5401 310.5,19.5C 305.906,19.1349 301.573,18.1349 297.5,16.5C 302.975,15.5111 308.642,15.1778 314.5,15.5 Z"/></g>
<g><path style="opacity:0.004" fill="#000000" d="M 503.5,17.5 C 504.833,18.1667 504.833,18.1667 503.5,17.5 Z"/></g>
<g><path style="opacity:1" fill="#416cb0" d="M 297.5,16.5 C 301.573,18.1349 305.906,19.1349 310.5,19.5C 302.316,19.1743 294.316,19.5076 286.5,20.5C 277.433,20.3711 268.433,21.0378 259.5,22.5C 258.167,22.5 256.833,22.5 255.5,22.5C 255.5,21.1667 255.5,19.8333 255.5,18.5C 254.167,18.5 252.833,18.5 251.5,18.5C 254.641,17.6787 257.975,17.1787 261.5,17C 273.495,16.5001 285.495,16.3335 297.5,16.5 Z"/></g>
<g><path style="opacity:0.004" fill="#000000" d="M 158.5,20.5 C 159.833,21.1667 159.833,21.1667 158.5,20.5 Z"/></g>
<g><path style="opacity:1" fill="#4c7cbd" d="M 251.5,18.5 C 252.833,18.5 254.167,18.5 255.5,18.5C 255.5,19.8333 255.5,21.1667 255.5,22.5C 252.833,23.1667 250.167,23.8333 247.5,24.5C 238.356,25.0802 229.356,26.4135 220.5,28.5C 216.797,28.9071 213.13,29.5737 209.5,30.5C 208.833,30.1667 208.167,29.8333 207.5,29.5C 214.542,26.3396 221.542,23.3396 228.5,20.5C 236.118,19.5339 243.784,18.8672 251.5,18.5 Z"/></g>
<g><path style="opacity:0.795" fill="#293158" d="M 407.5,32.5 C 405.139,32.3259 402.806,31.9926 400.5,31.5C 398.488,30.7717 396.488,29.9383 394.5,29C 383.596,26.7198 372.596,24.8865 361.5,23.5C 357.922,23.4512 354.589,22.7846 351.5,21.5C 349.341,19.6598 346.675,18.4932 343.5,18C 333.892,16.4239 324.226,15.5905 314.5,15.5C 295.995,14.3607 277.328,14.3607 258.5,15.5C 309.752,9.9513 359.419,15.618 407.5,32.5 Z"/></g>
<g><path style="opacity:1" fill="#5ea8ea" d="M 286.5,20.5 C 294.174,20.3336 301.841,20.5003 309.5,21C 313.533,21.2204 314.866,23.0537 313.5,26.5C 311.897,26.6882 310.563,26.1882 309.5,25C 292.663,24.397 275.996,23.5636 259.5,22.5C 268.433,21.0378 277.433,20.3711 286.5,20.5 Z"/></g>
<g><path style="opacity:1" fill="#5292d9" d="M 286.5,20.5 C 294.316,19.5076 302.316,19.1743 310.5,19.5C 315.193,19.5401 319.859,19.8734 324.5,20.5C 330.179,21.6119 336.013,22.6119 342,23.5C 342.5,23.8333 343,24.1667 343.5,24.5C 341.833,25.6667 340.167,26.8333 338.5,28C 339.056,28.3826 339.389,28.8826 339.5,29.5C 330.857,29.5248 322.191,28.5248 313.5,26.5C 314.866,23.0537 313.533,21.2204 309.5,21C 301.841,20.5003 294.174,20.3336 286.5,20.5 Z"/></g>
<g><path style="opacity:0.004" fill="#000000" d="M 83.5,24.5 C 84.8333,25.1667 84.8333,25.1667 83.5,24.5 Z"/></g>
<g><path style="opacity:0.004" fill="#000000" d="M 488.5,25.5 C 489.833,26.1667 489.833,26.1667 488.5,25.5 Z"/></g>
<g><path style="opacity:1" fill="#4b76bd" d="M 345.5,21.5 C 347.5,21.5 349.5,21.5 351.5,21.5C 354.589,22.7846 357.922,23.4512 361.5,23.5C 369.036,24.9458 376.37,26.9458 383.5,29.5C 378.438,28.9877 374.105,30.321 370.5,33.5C 366.742,35.1828 362.742,35.8495 358.5,35.5C 357.942,34.2101 356.942,33.3768 355.5,33C 358.721,31.0033 361.887,31.17 365,33.5C 366.706,32.6921 367.539,31.3588 367.5,29.5C 368.552,29.6495 369.552,29.4828 370.5,29C 368.22,28.7883 366.22,27.9549 364.5,26.5C 361.825,29.3011 359.491,28.9678 357.5,25.5C 353.266,24.4864 349.266,23.153 345.5,21.5 Z"/></g>
<g><path style="opacity:0.004" fill="#000000" d="M 8.5,28.5 C 9.83333,29.1667 9.83333,29.1667 8.5,28.5 Z"/></g>
<g><path style="opacity:0.231" fill="#243d5a" d="M 247.5,24.5 C 258.679,24.1721 269.679,24.5054 280.5,25.5C 258.533,24.6427 236.866,26.6427 215.5,31.5C 217.261,30.6873 218.928,29.6873 220.5,28.5C 229.356,26.4135 238.356,25.0802 247.5,24.5 Z"/></g>
<g><path style="opacity:1" fill="#568ac1" d="M 255.5,22.5 C 256.833,22.5 258.167,22.5 259.5,22.5C 275.996,23.5636 292.663,24.397 309.5,25C 310.563,26.1882 311.897,26.6882 313.5,26.5C 322.191,28.5248 330.857,29.5248 339.5,29.5C 343.176,29.5081 346.176,30.8414 348.5,33.5C 346.833,33.5 345.167,33.5 343.5,33.5C 324.062,28.9819 304.396,26.3153 284.5,25.5C 283.167,25.5 281.833,25.5 280.5,25.5C 269.679,24.5054 258.679,24.1721 247.5,24.5C 250.167,23.8333 252.833,23.1667 255.5,22.5 Z"/></g>
<g><path style="opacity:1" fill="#4b81c8" d="M 324.5,20.5 C 331.504,20.7731 338.504,21.1064 345.5,21.5C 349.266,23.153 353.266,24.4864 357.5,25.5C 359.491,28.9678 361.825,29.3011 364.5,26.5C 366.22,27.9549 368.22,28.7883 370.5,29C 369.552,29.4828 368.552,29.6495 367.5,29.5C 367.539,31.3588 366.706,32.6921 365,33.5C 361.887,31.17 358.721,31.0033 355.5,33C 356.942,33.3768 357.942,34.2101 358.5,35.5C 355.198,34.7063 351.865,34.0396 348.5,33.5C 346.176,30.8414 343.176,29.5081 339.5,29.5C 339.389,28.8826 339.056,28.3826 338.5,28C 340.167,26.8333 341.833,25.6667 343.5,24.5C 343,24.1667 342.5,23.8333 342,23.5C 336.013,22.6119 330.179,21.6119 324.5,20.5 Z"/></g>
<g><path style="opacity:1" fill="#4464a5" d="M 361.5,23.5 C 372.596,24.8865 383.596,26.7198 394.5,29C 396.488,29.9383 398.488,30.7717 400.5,31.5C 403.857,33.5371 407.19,35.5371 410.5,37.5C 408.234,37.8588 406.401,37.1922 405,35.5C 400.726,35.9577 396.226,36.291 391.5,36.5C 388.518,36.8956 385.851,36.2289 383.5,34.5C 384.885,33.4495 385.885,32.1161 386.5,30.5C 385.675,29.6143 384.675,29.281 383.5,29.5C 376.37,26.9458 369.036,24.9458 361.5,23.5 Z"/></g>
<g><path style="opacity:1" fill="#446996" d="M 228.5,20.5 C 221.542,23.3396 214.542,26.3396 207.5,29.5C 208.167,29.8333 208.833,30.1667 209.5,30.5C 213.13,29.5737 216.797,28.9071 220.5,28.5C 218.928,29.6873 217.261,30.6873 215.5,31.5C 209.987,33.3339 204.32,35.0006 198.5,36.5C 199.972,34.8657 201.638,33.3657 203.5,32C 199.848,31.5014 196.182,31.3347 192.5,31.5C 204.049,26.6524 216.049,22.9858 228.5,20.5 Z"/></g>
<g><path style="opacity:0.004" fill="#000000" d="M 482.5,30.5 C 483.833,31.1667 483.833,31.1667 482.5,30.5 Z"/></g>
<g><path style="opacity:0.004" fill="#000000" d="M 53.5,31.5 C 54.8333,32.1667 54.8333,32.1667 53.5,31.5 Z"/></g>
<g><path style="opacity:0.004" fill="#000000" d="M 104.5,31.5 C 105.833,32.1667 105.833,32.1667 104.5,31.5 Z"/></g>
<g><path style="opacity:1" fill="#4368b0" d="M 383.5,29.5 C 384.675,29.281 385.675,29.6143 386.5,30.5C 385.885,32.1161 384.885,33.4495 383.5,34.5C 385.851,36.2289 388.518,36.8956 391.5,36.5C 391.953,37.4584 392.619,38.2917 393.5,39C 392.833,39.3333 392.167,39.6667 391.5,40C 394.014,41.2525 396.68,41.7525 399.5,41.5C 399.5,42.8333 399.5,44.1667 399.5,45.5C 396.833,45.5 394.167,45.5 391.5,45.5C 390.257,43.8361 388.59,42.6695 386.5,42C 386.833,41.6667 387.167,41.3333 387.5,41C 384.044,40.8198 380.711,40.1532 377.5,39C 377.167,38.6667 376.833,38.3333 376.5,38C 377.938,37.7811 379.271,37.2811 380.5,36.5C 380.291,35.914 379.957,35.414 379.5,35C 376.993,34.9071 374.826,34.0738 373,32.5C 372.329,33.2524 371.496,33.5858 370.5,33.5C 374.105,30.321 378.438,28.9877 383.5,29.5 Z"/></g>
<g><path style="opacity:1" fill="#466ba4" d="M 391.5,45.5 C 382.024,43.0987 372.357,41.0987 362.5,39.5C 355.941,38.2782 349.607,36.6115 343.5,34.5C 343.5,34.1667 343.5,33.8333 343.5,33.5C 345.167,33.5 346.833,33.5 348.5,33.5C 351.865,34.0396 355.198,34.7063 358.5,35.5C 362.742,35.8495 366.742,35.1828 370.5,33.5C 371.496,33.5858 372.329,33.2524 373,32.5C 374.826,34.0738 376.993,34.9071 379.5,35C 379.957,35.414 380.291,35.914 380.5,36.5C 379.271,37.2811 377.938,37.7811 376.5,38C 376.833,38.3333 377.167,38.6667 377.5,39C 380.711,40.1532 384.044,40.8198 387.5,41C 387.167,41.3333 386.833,41.6667 386.5,42C 388.59,42.6695 390.257,43.8361 391.5,45.5 Z"/></g>
<g><path style="opacity:0.004" fill="#000000" d="M 101.5,33.5 C 102.833,34.1667 102.833,34.1667 101.5,33.5 Z"/></g>
<g><path style="opacity:0.525" fill="#262e4c" d="M 284.5,25.5 C 304.396,26.3153 324.062,28.9819 343.5,33.5C 343.5,33.8333 343.5,34.1667 343.5,34.5C 336.57,33.1148 329.57,32.1148 322.5,31.5C 320.162,39.5109 315.495,45.8443 308.5,50.5C 309.658,45.9924 312.324,42.8257 316.5,41C 317.823,40.1841 318.489,39.0174 318.5,37.5C 320.088,36.3647 320.421,35.0314 319.5,33.5C 318.06,34.9524 316.394,35.9524 314.5,36.5C 315.96,34.5372 317.627,32.7038 319.5,31C 319.167,30.6667 318.833,30.3333 318.5,30C 307.072,28.0563 295.739,26.5563 284.5,25.5 Z"/></g>
<g><path style="opacity:0.004" fill="#000000" d="M 47.5,35.5 C 48.8333,36.1667 48.8333,36.1667 47.5,35.5 Z"/></g>
<g><path style="opacity:0.972" fill="#5487b8" d="M 192.5,31.5 C 196.182,31.3347 199.848,31.5014 203.5,32C 201.638,33.3657 199.972,34.8657 198.5,36.5C 196.007,37.7736 193.341,38.4403 190.5,38.5C 185.83,39.0161 181.497,40.3494 177.5,42.5C 172.677,43.2179 168.01,44.5512 163.5,46.5C 161.885,45.846 160.218,45.346 158.5,45C 159.942,44.6232 160.942,43.7899 161.5,42.5C 171.471,38.0241 181.804,34.3574 192.5,31.5 Z"/></g>
<g><path style="opacity:0.998" fill="#323965" d="M 400.5,31.5 C 402.806,31.9926 405.139,32.3259 407.5,32.5C 421.494,36.5524 435.494,40.7191 449.5,45C 457.444,47.153 465.444,48.9863 473.5,50.5C 471.153,51.7157 468.653,51.7157 466,50.5C 462.287,53.9732 458.787,53.4732 455.5,49C 451.833,48.6667 448.167,48.3333 444.5,48C 445.634,46.984 445.301,46.3173 443.5,46C 439.246,45.3582 435.246,44.1915 431.5,42.5C 426.849,41.8908 422.182,40.8908 417.5,39.5C 415.721,37.6565 413.388,36.9898 410.5,37.5C 407.19,35.5371 403.857,33.5371 400.5,31.5 Z"/></g>
<g><path style="opacity:0.004" fill="#000000" d="M 488.5,39.5 C 489.833,40.1667 489.833,40.1667 488.5,39.5 Z"/></g>
<g><path style="opacity:1" fill="#3e579b" d="M 410.5,37.5 C 413.388,36.9898 415.721,37.6565 417.5,39.5C 416.178,39.67 415.011,39.3366 414,38.5C 413.833,39 413.667,39.5 413.5,40C 414.603,40.1466 415.77,40.98 417,42.5C 417.483,43.448 417.649,44.448 417.5,45.5C 414.53,45.7458 413.197,47.4124 413.5,50.5C 408.337,48.8171 403.004,48.1504 397.5,48.5C 397.167,48.5 396.833,48.5 396.5,48.5C 394.928,47.3127 393.261,46.3127 391.5,45.5C 394.167,45.5 396.833,45.5 399.5,45.5C 399.5,44.1667 399.5,42.8333 399.5,41.5C 396.68,41.7525 394.014,41.2525 391.5,40C 392.167,39.6667 392.833,39.3333 393.5,39C 392.619,38.2917 391.953,37.4584 391.5,36.5C 396.226,36.291 400.726,35.9577 405,35.5C 406.401,37.1922 408.234,37.8588 410.5,37.5 Z"/></g>
<g><path style="opacity:1" fill="#3b4a90" d="M 417.5,39.5 C 422.182,40.8908 426.849,41.8908 431.5,42.5C 431.414,43.4959 431.748,44.3292 432.5,45C 435.289,45.2414 437.956,45.908 440.5,47C 439.138,49.4388 437.305,49.9388 435,48.5C 432.1,52.1155 428.266,53.4489 423.5,52.5C 420.167,51.8333 416.833,51.1667 413.5,50.5C 413.197,47.4124 414.53,45.7458 417.5,45.5C 417.649,44.448 417.483,43.448 417,42.5C 415.77,40.98 414.603,40.1466 413.5,40C 413.667,39.5 413.833,39 414,38.5C 415.011,39.3366 416.178,39.67 417.5,39.5 Z"/></g>
<g><path style="opacity:0.004" fill="#000000" d="M 65.5,41.5 C 66.8333,42.1667 66.8333,42.1667 65.5,41.5 Z"/></g>
<g><path style="opacity:0.004" fill="#000000" d="M 95.5,41.5 C 96.8333,42.1667 96.8333,42.1667 95.5,41.5 Z"/></g>
<g><path style="opacity:0.098" fill="#132c4c" d="M 190.5,38.5 C 186.498,40.6098 182.165,41.9431 177.5,42.5C 181.497,40.3494 185.83,39.0161 190.5,38.5 Z"/></g>
<g><path style="opacity:0.976" fill="#30335b" d="M 318.5,37.5 C 318.565,37.0618 318.399,36.7284 318,36.5C 316.601,37.2266 315.101,37.7266 313.5,38C 310.61,39.9378 307.944,42.1045 305.5,44.5C 298.409,44.9393 291.742,46.606 285.5,49.5C 277.487,50.2795 269.487,51.2795 261.5,52.5C 256.833,52.5 252.167,52.5 247.5,52.5C 265.646,50.9743 283.646,47.8077 301.5,43C 306.148,41.2952 310.481,39.1285 314.5,36.5C 316.394,35.9524 318.06,34.9524 319.5,33.5C 320.421,35.0314 320.088,36.3647 318.5,37.5 Z"/></g>
<g><path style="opacity:0.004" fill="#000000" d="M 476.5,44.5 C 477.833,45.1667 477.833,45.1667 476.5,44.5 Z"/></g>
<g><path style="opacity:0.85" fill="#315375" d="M 161.5,42.5 C 160.942,43.7899 159.942,44.6232 158.5,45C 160.218,45.346 161.885,45.846 163.5,46.5C 168.01,44.5512 172.677,43.2179 177.5,42.5C 167.923,46.4653 157.59,49.7986 146.5,52.5C 149.797,50.3987 153.463,49.0653 157.5,48.5C 157.719,47.325 157.386,46.325 156.5,45.5C 154.929,46.3094 153.262,46.6427 151.5,46.5C 154.54,44.6541 157.873,43.3208 161.5,42.5 Z"/></g>
<g><path style="opacity:0.263" fill="#253551" d="M 362.5,39.5 C 372.357,41.0987 382.024,43.0987 391.5,45.5C 393.261,46.3127 394.928,47.3127 396.5,48.5C 384.929,45.9923 373.595,42.9923 362.5,39.5 Z"/></g>
<g><path style="opacity:0.004" fill="#000000" d="M 137.5,46.5 C 138.833,47.1667 138.833,47.1667 137.5,46.5 Z"/></g>
<g><path style="opacity:1" fill="#363a7a" d="M 431.5,42.5 C 435.246,44.1915 439.246,45.3582 443.5,46C 445.301,46.3173 445.634,46.984 444.5,48C 448.167,48.3333 451.833,48.6667 455.5,49C 458.787,53.4732 462.287,53.9732 466,50.5C 468.653,51.7157 471.153,51.7157 473.5,50.5C 474.167,50.5 474.5,50.8333 474.5,51.5C 473.152,53.4803 471.152,54.647 468.5,55C 456.167,55.6667 443.833,55.6667 431.5,55C 428.478,54.9016 425.811,54.0682 423.5,52.5C 428.266,53.4489 432.1,52.1155 435,48.5C 437.305,49.9388 439.138,49.4388 440.5,47C 437.956,45.908 435.289,45.2414 432.5,45C 431.748,44.3292 431.414,43.4959 431.5,42.5 Z"/></g>
<g><path style="opacity:0.898" fill="#6b9fc7" d="M 146.5,52.5 C 144.131,52.8511 141.797,53.0178 139.5,53C 143.753,51.0446 147.753,48.8779 151.5,46.5C 153.262,46.6427 154.929,46.3094 156.5,45.5C 157.386,46.325 157.719,47.325 157.5,48.5C 153.463,49.0653 149.797,50.3987 146.5,52.5 Z"/></g>
<g><path style="opacity:1" fill="#353875" d="M 318.5,37.5 C 318.489,39.0174 317.823,40.1841 316.5,41C 312.324,42.8257 309.658,45.9924 308.5,50.5C 301.759,55.2039 294.426,58.8706 286.5,61.5C 286.158,60.6618 285.492,60.3284 284.5,60.5C 284.759,57.5203 283.426,55.687 280.5,55C 283.739,53.0083 286.906,53.175 290,55.5C 292.058,54.8883 293.891,53.8883 295.5,52.5C 295.291,51.914 294.957,51.414 294.5,51C 291.456,50.6371 288.456,50.1371 285.5,49.5C 291.742,46.606 298.409,44.9393 305.5,44.5C 307.944,42.1045 310.61,39.9378 313.5,38C 315.101,37.7266 316.601,37.2266 318,36.5C 318.399,36.7284 318.565,37.0618 318.5,37.5 Z"/></g>
<g><path style="opacity:0.004" fill="#000000" d="M 350.5,48.5 C 351.833,49.1667 351.833,49.1667 350.5,48.5 Z"/></g>
<g><path style="opacity:1" fill="#3e549a" d="M 260.5,53.5 C 260.833,53.5 261.167,53.5 261.5,53.5C 263.604,53.2011 265.604,53.5344 267.5,54.5C 266.691,56.0709 266.357,57.7376 266.5,59.5C 270.014,58.0706 273.514,57.404 277,57.5C 277.167,57.8333 277.333,58.1667 277.5,58.5C 276.398,59.1757 275.398,59.8423 274.5,60.5C 274.389,61.1174 274.056,61.6174 273.5,62C 267.56,63.4694 261.56,64.6361 255.5,65.5C 254.448,65.6495 253.448,65.4828 252.5,65C 255.426,64.7822 258.26,64.2822 261,63.5C 261.667,61.8333 261.667,60.1667 261,58.5C 258.198,57.6702 255.365,56.8368 252.5,56C 255.31,55.2177 257.977,54.3844 260.5,53.5 Z"/></g>
<g><path style="opacity:0.004" fill="#000000" d="M 86.5,54.5 C 87.8333,55.1667 87.8333,55.1667 86.5,54.5 Z"/></g>
<g><path style="opacity:0.227" fill="#243854" d="M 246.5,52.5 C 237.05,54.0749 227.384,54.9083 217.5,55C 201.994,55.8279 186.661,55.6612 171.5,54.5C 196.376,54.6599 221.376,53.9932 246.5,52.5 Z"/></g>
<g><path style="opacity:1" fill="#3b4b8d" d="M 285.5,49.5 C 288.456,50.1371 291.456,50.6371 294.5,51C 294.957,51.414 295.291,51.914 295.5,52.5C 293.891,53.8883 292.058,54.8883 290,55.5C 286.906,53.175 283.739,53.0083 280.5,55C 283.426,55.687 284.759,57.5203 284.5,60.5C 281.167,60.5 277.833,60.5 274.5,60.5C 275.398,59.8423 276.398,59.1757 277.5,58.5C 277.333,58.1667 277.167,57.8333 277,57.5C 273.514,57.404 270.014,58.0706 266.5,59.5C 266.357,57.7376 266.691,56.0709 267.5,54.5C 265.604,53.5344 263.604,53.2011 261.5,53.5C 261.5,53.1667 261.5,52.8333 261.5,52.5C 269.487,51.2795 277.487,50.2795 285.5,49.5 Z"/></g>
<g><path style="opacity:0.09" fill="#223754" d="M 151.5,46.5 C 147.753,48.8779 143.753,51.0446 139.5,53C 141.797,53.0178 144.131,52.8511 146.5,52.5C 145.4,53.5585 144.066,54.3918 142.5,55C 148.157,55.4994 153.824,55.6661 159.5,55.5C 141.521,57.0417 123.354,58.0417 105,58.5C 102.639,58.4961 100.473,58.1627 98.5,57.5C 108.834,57.0877 119.167,56.5877 129.5,56C 136.506,51.9953 143.839,48.8286 151.5,46.5 Z"/></g>
<g><path style="opacity:1" fill="#496fa5" d="M 246.5,52.5 C 246.833,52.5 247.167,52.5 247.5,52.5C 252.167,52.5 256.833,52.5 261.5,52.5C 261.5,52.8333 261.5,53.1667 261.5,53.5C 261.167,53.5 260.833,53.5 260.5,53.5C 256.069,53.2307 251.735,53.564 247.5,54.5C 242.87,55.2295 238.203,55.5628 233.5,55.5C 233.843,57.4832 233.176,58.8166 231.5,59.5C 224.033,57.2326 216.033,56.2326 207.5,56.5C 193.829,56.3334 180.163,56.5001 166.5,57C 167.737,57.2321 168.737,57.7321 169.5,58.5C 160.833,58.5 152.167,58.5 143.5,58.5C 133.985,58.1731 124.652,58.5064 115.5,59.5C 109.5,59.5 103.5,59.5 97.5,59.5C 97.5,58.8333 97.5,58.1667 97.5,57.5C 97.8333,57.5 98.1667,57.5 98.5,57.5C 100.473,58.1627 102.639,58.4961 105,58.5C 123.354,58.0417 141.521,57.0417 159.5,55.5C 163.566,55.693 167.566,55.3597 171.5,54.5C 186.661,55.6612 201.994,55.8279 217.5,55C 227.384,54.9083 237.05,54.0749 246.5,52.5 Z"/></g>
<g><path style="opacity:1" fill="#415fa3" d="M 260.5,53.5 C 257.977,54.3844 255.31,55.2177 252.5,56C 255.365,56.8368 258.198,57.6702 261,58.5C 261.667,60.1667 261.667,61.8333 261,63.5C 258.26,64.2822 255.426,64.7822 252.5,65C 253.448,65.4828 254.448,65.6495 255.5,65.5C 252.373,66.5808 249.04,67.2474 245.5,67.5C 248.106,66.1501 248.106,64.6501 245.5,63C 246.833,60.9905 248.5,59.3239 250.5,58C 249.062,57.7811 247.729,57.2811 246.5,56.5C 246.863,55.8165 247.196,55.1499 247.5,54.5C 251.735,53.564 256.069,53.2307 260.5,53.5 Z"/></g>
<g><path style="opacity:0.543" fill="#2b2e52" d="M 397.5,48.5 C 403.004,48.1504 408.337,48.8171 413.5,50.5C 416.833,51.1667 420.167,51.8333 423.5,52.5C 425.811,54.0682 428.478,54.9016 431.5,55C 443.833,55.6667 456.167,55.6667 468.5,55C 471.152,54.647 473.152,53.4803 474.5,51.5C 477.972,51.1262 480.972,52.1262 483.5,54.5C 482.376,55.914 481.376,57.414 480.5,59C 467.647,67.0518 453.647,72.0518 438.5,74C 418.662,74.8291 398.996,74.6624 379.5,73.5C 391.833,73.5 404.167,73.5 416.5,73.5C 424.071,73.8433 431.404,73.1766 438.5,71.5C 444.2,70.9412 449.867,70.1079 455.5,69C 461.283,66.2745 466.95,63.2745 472.5,60C 446.488,59.9663 420.488,58.7996 394.5,56.5C 388.325,56.3781 382.158,56.0448 376,55.5C 373.071,55.4752 370.571,54.8086 368.5,53.5C 396.653,55.6653 424.82,57.6653 453,59.5C 453.5,59 454,58.5 454.5,58C 434.927,57.4046 415.927,54.2379 397.5,48.5 Z M 456.5,58.5 C 460.646,57.353 464.98,57.1864 469.5,58C 465.778,58.2382 462.111,58.7382 458.5,59.5C 457.817,59.1373 457.15,58.8039 456.5,58.5 Z"/></g>
<g><path style="opacity:1" fill="#497abf" d="M 207.5,56.5 C 216.033,56.2326 224.033,57.2326 231.5,59.5C 231.881,60.9311 232.881,61.7645 234.5,62C 233.051,63.117 231.384,63.7837 229.5,64C 231.037,65.1096 231.703,66.6096 231.5,68.5C 228.833,68.5 226.167,68.5 223.5,68.5C 218.567,67.4132 213.567,66.7466 208.5,66.5C 206.751,65.0149 204.751,64.0149 202.5,63.5C 206.091,63.6883 209.424,62.855 212.5,61C 210.5,60.3333 208.5,59.6667 206.5,59C 207.252,58.3292 207.586,57.4959 207.5,56.5 Z"/></g>
<g><path style="opacity:1" fill="#456ab0" d="M 247.5,54.5 C 247.196,55.1499 246.863,55.8165 246.5,56.5C 247.729,57.2811 249.062,57.7811 250.5,58C 248.5,59.3239 246.833,60.9905 245.5,63C 248.106,64.6501 248.106,66.1501 245.5,67.5C 240.859,68.1266 236.193,68.4599 231.5,68.5C 231.703,66.6096 231.037,65.1096 229.5,64C 231.384,63.7837 233.051,63.117 234.5,62C 232.881,61.7645 231.881,60.9311 231.5,59.5C 233.176,58.8166 233.843,57.4832 233.5,55.5C 238.203,55.5628 242.87,55.2295 247.5,54.5 Z"/></g>
<g><path style="opacity:1" fill="#4672b7" d="M 171.5,58.5 C 174.713,58.19 177.713,58.5233 180.5,59.5C 176.648,59.4811 172.981,60.3145 169.5,62C 170.5,62.3333 171.5,62.6667 172.5,63C 171.149,64.6171 169.482,65.7838 167.5,66.5C 168.582,66.7486 169.915,66.9152 171.5,67C 169.065,68.0034 169.398,68.5034 172.5,68.5C 176.132,67.7543 179.798,67.421 183.5,67.5C 183.5,68.5 183.5,69.5 183.5,70.5C 183.5,70.8333 183.5,71.1667 183.5,71.5C 175.279,70.9342 167.612,70.2676 160.5,69.5C 159.375,67.1795 159.208,64.8462 160,62.5C 157.931,61.7362 155.764,61.2362 153.5,61C 159.573,59.9201 165.573,59.0868 171.5,58.5 Z"/></g>
<g><path style="opacity:0.004" fill="#000000" d="M 11.5,59.5 C 12.8333,60.1667 12.8333,60.1667 11.5,59.5 Z"/></g>
<g><path style="opacity:1" fill="#5db7fa" d="M 343.5,68.5 C 330.163,68.6666 316.829,68.4999 303.5,68C 305.778,67.0138 308.111,66.1805 310.5,65.5C 311.707,63.4589 313.374,62.1255 315.5,61.5C 319.476,60.7048 323.476,60.0381 327.5,59.5C 331.042,59.3802 334.542,59.7135 338,60.5C 341.407,59.3076 344.907,58.641 348.5,58.5C 348.414,60.677 347.747,62.677 346.5,64.5C 348.733,67.3348 347.733,68.6681 343.5,68.5 Z"/></g>
<g><path style="opacity:1" fill="#5fa7e7" d="M 347.5,56.5 C 351.167,56.5 354.833,56.5 358.5,56.5C 356.046,57.6206 353.379,58.454 350.5,59C 352.5,60.6667 354.5,62.3333 356.5,64C 355.833,64.3333 355.167,64.6667 354.5,65C 354.5,66 354.5,67 354.5,68C 365.656,68.0123 376.656,69.1789 387.5,71.5C 387.5,71.8333 387.5,72.1667 387.5,72.5C 384.167,72.5 380.833,72.5 377.5,72.5C 365.968,72.0863 354.635,71.0863 343.5,69.5C 343.5,69.1667 343.5,68.8333 343.5,68.5C 347.733,68.6681 348.733,67.3348 346.5,64.5C 347.747,62.677 348.414,60.677 348.5,58.5C 344.907,58.641 341.407,59.3076 338,60.5C 334.542,59.7135 331.042,59.3802 327.5,59.5C 333.899,57.5849 340.565,56.5849 347.5,56.5 Z"/></g>
<g><path style="opacity:0.004" fill="#000000" d="M 8.5,60.5 C 9.83333,61.1667 9.83333,61.1667 8.5,60.5 Z"/></g>
<g><path style="opacity:0.086" fill="#12263b" d="M 97.5,57.5 C 97.5,58.1667 97.5,58.8333 97.5,59.5C 85.8188,59.692 74.4855,61.3586 63.5,64.5C 51.0351,66.0672 40.0351,70.9006 30.5,79C 31.0944,79.4643 31.7611,79.631 32.5,79.5C 31.2139,81.3675 29.8805,81.5342 28.5,80C 33.2289,73.4578 39.5622,69.1245 47.5,67C 63.7968,61.839 80.4634,58.6723 97.5,57.5 Z"/></g>
<g><path style="opacity:1" fill="#4d8bd0" d="M 121.5,59.5 C 125.012,58.9455 128.012,59.6122 130.5,61.5C 126.89,62.6044 123.224,63.6044 119.5,64.5C 123.546,65.3937 124.213,67.227 121.5,70C 123.134,70.4935 124.801,70.6602 126.5,70.5C 126.5,70.8333 126.5,71.1667 126.5,71.5C 121.5,71.5 116.5,71.5 111.5,71.5C 111.172,68.9956 109.838,67.1622 107.5,66C 109.662,64.5067 111.662,62.84 113.5,61C 116.365,60.8171 119.031,60.3171 121.5,59.5 Z"/></g>
<g><path style="opacity:0.004" fill="#000000" d="M 500.5,60.5 C 501.833,61.1667 501.833,61.1667 500.5,60.5 Z"/></g>
<g><path style="opacity:1" fill="#548eca" d="M 97.5,59.5 C 103.5,59.5 109.5,59.5 115.5,59.5C 117.5,59.5 119.5,59.5 121.5,59.5C 119.031,60.3171 116.365,60.8171 113.5,61C 111.662,62.84 109.662,64.5067 107.5,66C 109.838,67.1622 111.172,68.9956 111.5,71.5C 116.5,71.5 121.5,71.5 126.5,71.5C 127.167,71.5 127.5,71.8333 127.5,72.5C 111.5,72.5 95.5,72.5 79.5,72.5C 84.5826,70.9216 89.916,70.2549 95.5,70.5C 95.5,69.5 95.5,68.5 95.5,67.5C 99.1667,67.5 102.833,67.5 106.5,67.5C 106.649,66.448 106.483,65.448 106,64.5C 105,64.8333 104,65.1667 103,65.5C 101.156,63.1141 98.6561,61.9474 95.5,62C 87.164,60.9174 79.164,61.7507 71.5,64.5C 68.8333,64.5 66.1667,64.5 63.5,64.5C 74.4855,61.3586 85.8188,59.692 97.5,59.5 Z"/></g>
<g><path style="opacity:1" fill="#4c84cc" d="M 130.5,61.5 C 132.924,61.1924 135.257,61.5258 137.5,62.5C 138.246,63.7362 138.579,65.0695 138.5,66.5C 139.822,66.67 140.989,66.3366 142,65.5C 142.464,66.0944 142.631,66.7611 142.5,67.5C 137.608,69.4542 132.274,70.4542 126.5,70.5C 124.801,70.6602 123.134,70.4935 121.5,70C 124.213,67.227 123.546,65.3937 119.5,64.5C 123.224,63.6044 126.89,62.6044 130.5,61.5 Z"/></g>
<g><path style="opacity:1" fill="#4b78ba" d="M 143.5,58.5 C 152.167,58.5 160.833,58.5 169.5,58.5C 170.167,58.5 170.833,58.5 171.5,58.5C 165.573,59.0868 159.573,59.9201 153.5,61C 155.764,61.2362 157.931,61.7362 160,62.5C 159.208,64.8462 159.375,67.1795 160.5,69.5C 167.612,70.2676 175.279,70.9342 183.5,71.5C 187.5,71.5 191.5,71.5 195.5,71.5C 173.006,72.4975 150.339,72.8308 127.5,72.5C 127.5,71.8333 127.167,71.5 126.5,71.5C 126.5,71.1667 126.5,70.8333 126.5,70.5C 132.274,70.4542 137.608,69.4542 142.5,67.5C 145.918,66.3887 148.918,64.5554 151.5,62C 149.147,60.0363 146.647,59.5363 144,60.5C 143.536,59.9056 143.369,59.2389 143.5,58.5 Z"/></g>
<g><path style="opacity:1" fill="#528bcf" d="M 207.5,56.5 C 207.586,57.4959 207.252,58.3292 206.5,59C 208.5,59.6667 210.5,60.3333 212.5,61C 209.424,62.855 206.091,63.6883 202.5,63.5C 195.21,61.9516 187.877,60.6183 180.5,59.5C 177.713,58.5233 174.713,58.19 171.5,58.5C 170.833,58.5 170.167,58.5 169.5,58.5C 168.737,57.7321 167.737,57.2321 166.5,57C 180.163,56.5001 193.829,56.3334 207.5,56.5 Z"/></g>
<g><path style="opacity:1" fill="#446bac" d="M 367.5,53.5 C 367.833,53.5 368.167,53.5 368.5,53.5C 370.571,54.8086 373.071,55.4752 376,55.5C 382.158,56.0448 388.325,56.3781 394.5,56.5C 395.78,57.9313 397.447,58.5979 399.5,58.5C 399.5,59.5 399.5,60.5 399.5,61.5C 400.5,61.5 401.5,61.5 402.5,61.5C 400.5,62.1667 398.5,62.8333 396.5,63.5C 391.723,63.5638 387.056,64.2305 382.5,65.5C 374.756,64.7295 373.423,61.8962 378.5,57C 374.848,56.5014 371.182,56.3347 367.5,56.5C 364.5,56.5 361.5,56.5 358.5,56.5C 354.833,56.5 351.167,56.5 347.5,56.5C 354.395,56.1502 361.062,55.1502 367.5,53.5 Z"/></g>
<g><path style="opacity:1" fill="#4b80c2" d="M 115.5,59.5 C 124.652,58.5064 133.985,58.1731 143.5,58.5C 143.369,59.2389 143.536,59.9056 144,60.5C 146.647,59.5363 149.147,60.0363 151.5,62C 148.918,64.5554 145.918,66.3887 142.5,67.5C 142.631,66.7611 142.464,66.0944 142,65.5C 140.989,66.3366 139.822,66.67 138.5,66.5C 138.579,65.0695 138.246,63.7362 137.5,62.5C 135.257,61.5258 132.924,61.1924 130.5,61.5C 128.012,59.6122 125.012,58.9455 121.5,59.5C 119.5,59.5 117.5,59.5 115.5,59.5 Z"/></g>
<g><path style="opacity:1" fill="#5193da" d="M 358.5,56.5 C 361.5,56.5 364.5,56.5 367.5,56.5C 365.982,59.791 366.648,62.6243 369.5,65C 376.421,66.2189 383.421,66.8855 390.5,67C 389.167,67.3333 387.833,67.6667 386.5,68C 388.715,69.0438 391.048,69.7105 393.5,70C 391.655,71.128 389.655,71.628 387.5,71.5C 376.656,69.1789 365.656,68.0123 354.5,68C 354.5,67 354.5,66 354.5,65C 355.167,64.6667 355.833,64.3333 356.5,64C 354.5,62.3333 352.5,60.6667 350.5,59C 353.379,58.454 356.046,57.6206 358.5,56.5 Z"/></g>
<g><path style="opacity:1" fill="#4462a5" d="M 439.5,61.5 C 432.354,59.9783 429.687,62.6449 431.5,69.5C 433.743,70.4742 436.076,70.8076 438.5,70.5C 438.5,70.8333 438.5,71.1667 438.5,71.5C 431.404,73.1766 424.071,73.8433 416.5,73.5C 416.082,72.7784 415.416,72.2784 414.5,72C 417.553,71.8214 420.553,71.3214 423.5,70.5C 422.024,69.1198 421.024,67.4531 420.5,65.5C 421.853,64.4763 422.52,63.143 422.5,61.5C 418.5,61.5 414.5,61.5 410.5,61.5C 408.167,61.5 405.833,61.5 403.5,61.5C 415.494,58.8994 427.494,58.8994 439.5,61.5 Z"/></g>
<g><path style="opacity:1" fill="#394582" d="M 394.5,56.5 C 420.488,58.7996 446.488,59.9663 472.5,60C 466.95,63.2745 461.283,66.2745 455.5,69C 449.867,70.1079 444.2,70.9412 438.5,71.5C 438.5,71.1667 438.5,70.8333 438.5,70.5C 442.75,69.7275 447.083,69.2275 451.5,69C 452.337,67.9887 452.67,66.8221 452.5,65.5C 449.428,65.8174 446.428,65.4841 443.5,64.5C 444.167,63.8333 444.833,63.1667 445.5,62.5C 443.604,61.5344 441.604,61.2011 439.5,61.5C 427.494,58.8994 415.494,58.8994 403.5,61.5C 403.167,61.5 402.833,61.5 402.5,61.5C 401.5,61.5 400.5,61.5 399.5,61.5C 399.5,60.5 399.5,59.5 399.5,58.5C 397.447,58.5979 395.78,57.9313 394.5,56.5 Z"/></g>
<g><path style="opacity:1" fill="#436ab1" d="M 180.5,59.5 C 187.877,60.6183 195.21,61.9516 202.5,63.5C 204.751,64.0149 206.751,65.0149 208.5,66.5C 203.167,67.1135 197.834,67.9469 192.5,69C 193.167,69.3333 193.833,69.6667 194.5,70C 190.848,70.4986 187.182,70.6653 183.5,70.5C 183.5,69.5 183.5,68.5 183.5,67.5C 179.798,67.421 176.132,67.7543 172.5,68.5C 169.398,68.5034 169.065,68.0034 171.5,67C 169.915,66.9152 168.582,66.7486 167.5,66.5C 169.482,65.7838 171.149,64.6171 172.5,63C 171.5,62.6667 170.5,62.3333 169.5,62C 172.981,60.3145 176.648,59.4811 180.5,59.5 Z"/></g>
<g><path style="opacity:1" fill="#69aada" d="M 315.5,61.5 C 313.374,62.1255 311.707,63.4589 310.5,65.5C 308.111,66.1805 305.778,67.0138 303.5,68C 316.829,68.4999 330.163,68.6666 343.5,68.5C 343.5,68.8333 343.5,69.1667 343.5,69.5C 328.163,69.3334 312.83,69.5001 297.5,70C 294.635,70.1829 291.969,70.6829 289.5,71.5C 287.46,72.5192 285.46,72.5192 283.5,71.5C 284.32,69.8888 285.654,69.2222 287.5,69.5C 296.636,66.2335 305.97,63.5668 315.5,61.5 Z"/></g>
<g><path style="opacity:1" fill="#4978c0" d="M 402.5,61.5 C 402.833,61.5 403.167,61.5 403.5,61.5C 405.833,61.5 408.167,61.5 410.5,61.5C 411.78,62.9313 413.447,63.5979 415.5,63.5C 413.566,66.2716 414.233,68.1049 417.5,69C 416.436,70.5106 415.103,70.6772 413.5,69.5C 408.957,70.196 404.291,70.0293 399.5,69C 398.354,66.4428 399.354,65.1095 402.5,65C 400.564,64.187 398.564,63.687 396.5,63.5C 398.5,62.8333 400.5,62.1667 402.5,61.5 Z"/></g>
<g><path style="opacity:1" fill="#4871b2" d="M 410.5,61.5 C 414.5,61.5 418.5,61.5 422.5,61.5C 422.52,63.143 421.853,64.4763 420.5,65.5C 421.024,67.4531 422.024,69.1198 423.5,70.5C 420.553,71.3214 417.553,71.8214 414.5,72C 415.416,72.2784 416.082,72.7784 416.5,73.5C 404.167,73.5 391.833,73.5 379.5,73.5C 378.833,73.5 378.167,73.5 377.5,73.5C 377.5,73.1667 377.5,72.8333 377.5,72.5C 380.833,72.5 384.167,72.5 387.5,72.5C 394.508,72.6663 401.508,72.4996 408.5,72C 410.744,71.9504 412.411,71.1171 413.5,69.5C 415.103,70.6772 416.436,70.5106 417.5,69C 414.233,68.1049 413.566,66.2716 415.5,63.5C 413.447,63.5979 411.78,62.9313 410.5,61.5 Z"/></g>
<g><path style="opacity:1" fill="#3e559c" d="M 439.5,61.5 C 441.604,61.2011 443.604,61.5344 445.5,62.5C 444.833,63.1667 444.167,63.8333 443.5,64.5C 446.428,65.4841 449.428,65.8174 452.5,65.5C 452.67,66.8221 452.337,67.9887 451.5,69C 447.083,69.2275 442.75,69.7275 438.5,70.5C 436.076,70.8076 433.743,70.4742 431.5,69.5C 429.687,62.6449 432.354,59.9783 439.5,61.5 Z"/></g>
<g><path style="opacity:1" fill="#57a4ed" d="M 71.5,64.5 C 75.8333,64.5 80.1667,64.5 84.5,64.5C 84.5,65.5 84.5,66.5 84.5,67.5C 83.1779,67.33 82.0113,67.6634 81,68.5C 78.2449,66.5318 75.4116,66.6984 72.5,69C 68.5,69.3333 64.5,69.6667 60.5,70C 59.1416,70.9344 57.8083,71.7677 56.5,72.5C 51.8708,73.481 47.2041,73.6477 42.5,73C 45.9582,71.5845 49.6249,71.0845 53.5,71.5C 53.5,70.5 53.5,69.5 53.5,68.5C 59.4687,66.5154 65.4687,65.182 71.5,64.5 Z"/></g>
<g><path style="opacity:1" fill="#559bdf" d="M 79.5,72.5 C 74.5,72.5 69.5,72.5 64.5,72.5C 61.8333,72.5 59.1667,72.5 56.5,72.5C 57.8083,71.7677 59.1416,70.9344 60.5,70C 64.5,69.6667 68.5,69.3333 72.5,69C 75.4116,66.6984 78.2449,66.5318 81,68.5C 82.0113,67.6634 83.1779,67.33 84.5,67.5C 84.5,66.5 84.5,65.5 84.5,64.5C 80.1667,64.5 75.8333,64.5 71.5,64.5C 79.164,61.7507 87.164,60.9174 95.5,62C 98.6561,61.9474 101.156,63.1141 103,65.5C 104,65.1667 105,64.8333 106,64.5C 106.483,65.448 106.649,66.448 106.5,67.5C 102.833,67.5 99.1667,67.5 95.5,67.5C 95.5,68.5 95.5,69.5 95.5,70.5C 89.916,70.2549 84.5826,70.9216 79.5,72.5 Z"/></g>
<g><path style="opacity:0.059" fill="#222b48" d="M 284.5,61.5 C 275.276,65.2117 265.609,67.5451 255.5,68.5C 264.881,65.5517 274.548,63.2184 284.5,61.5 Z"/></g>
<g><path style="opacity:0.275" fill="#274966" d="M 367.5,53.5 C 361.062,55.1502 354.395,56.1502 347.5,56.5C 340.565,56.5849 333.899,57.5849 327.5,59.5C 323.476,60.0381 319.476,60.7048 315.5,61.5C 305.97,63.5668 296.636,66.2335 287.5,69.5C 298.846,63.9974 310.846,60.1641 323.5,58C 338.087,55.6569 352.754,54.1569 367.5,53.5 Z"/></g>
<g><path style="opacity:0.004" fill="#000000" d="M 509.5,66.5 C 510.833,67.1667 510.833,67.1667 509.5,66.5 Z"/></g>
<g><path style="opacity:0.81" fill="#3e5281" d="M 274.5,60.5 C 277.833,60.5 281.167,60.5 284.5,60.5C 285.492,60.3284 286.158,60.6618 286.5,61.5C 285.833,61.5 285.167,61.5 284.5,61.5C 274.548,63.2184 264.881,65.5517 255.5,68.5C 244.927,70.2702 234.26,71.2702 223.5,71.5C 223.5,70.5 223.5,69.5 223.5,68.5C 226.167,68.5 228.833,68.5 231.5,68.5C 236.193,68.4599 240.859,68.1266 245.5,67.5C 249.04,67.2474 252.373,66.5808 255.5,65.5C 261.56,64.6361 267.56,63.4694 273.5,62C 274.056,61.6174 274.389,61.1174 274.5,60.5 Z"/></g>
<g><path style="opacity:1" fill="#4e85ca" d="M 367.5,56.5 C 371.182,56.3347 374.848,56.5014 378.5,57C 373.423,61.8962 374.756,64.7295 382.5,65.5C 387.056,64.2305 391.723,63.5638 396.5,63.5C 398.564,63.687 400.564,64.187 402.5,65C 399.354,65.1095 398.354,66.4428 399.5,69C 404.291,70.0293 408.957,70.196 413.5,69.5C 412.411,71.1171 410.744,71.9504 408.5,72C 401.508,72.4996 394.508,72.6663 387.5,72.5C 387.5,72.1667 387.5,71.8333 387.5,71.5C 389.655,71.628 391.655,71.128 393.5,70C 391.048,69.7105 388.715,69.0438 386.5,68C 387.833,67.6667 389.167,67.3333 390.5,67C 383.421,66.8855 376.421,66.2189 369.5,65C 366.648,62.6243 365.982,59.791 367.5,56.5 Z"/></g>
<g><path style="opacity:0.966" fill="#435d9c" d="M 208.5,66.5 C 213.567,66.7466 218.567,67.4132 223.5,68.5C 223.5,69.5 223.5,70.5 223.5,71.5C 222.833,71.5 222.167,71.5 221.5,71.5C 212.833,71.5 204.167,71.5 195.5,71.5C 191.5,71.5 187.5,71.5 183.5,71.5C 183.5,71.1667 183.5,70.8333 183.5,70.5C 187.182,70.6653 190.848,70.4986 194.5,70C 193.833,69.6667 193.167,69.3333 192.5,69C 197.834,67.9469 203.167,67.1135 208.5,66.5 Z"/></g>
<g><path style="opacity:0.086" fill="#21425f" d="M 343.5,69.5 C 354.635,71.0863 365.968,72.0863 377.5,72.5C 377.5,72.8333 377.5,73.1667 377.5,73.5C 358.683,72.2017 339.85,71.2017 321,70.5C 311.094,70.3141 301.261,70.9808 291.5,72.5C 290.584,72.4573 289.917,72.1239 289.5,71.5C 291.969,70.6829 294.635,70.1829 297.5,70C 312.83,69.5001 328.163,69.3334 343.5,69.5 Z"/></g>
<g><path style="opacity:0.004" fill="#000000" d="M 32.5,71.5 C 33.8333,72.1667 33.8333,72.1667 32.5,71.5 Z"/></g>
<g><path style="opacity:0.004" fill="#000000" d="M 311.5,71.5 C 312.833,72.1667 312.833,72.1667 311.5,71.5 Z"/></g>
<g><path style="opacity:0.123" fill="#253b59" d="M 195.5,71.5 C 204.167,71.5 212.833,71.5 221.5,71.5C 208.029,72.9841 194.362,73.8175 180.5,74C 138.835,74.5 97.168,74.6667 55.5,74.5C 58.5,73.8333 61.5,73.1667 64.5,72.5C 69.5,72.5 74.5,72.5 79.5,72.5C 95.5,72.5 111.5,72.5 127.5,72.5C 150.339,72.8308 173.006,72.4975 195.5,71.5 Z"/></g>
<g><path style="opacity:0.984" fill="#65a1d7" d="M 63.5,64.5 C 66.1667,64.5 68.8333,64.5 71.5,64.5C 65.4687,65.182 59.4687,66.5154 53.5,68.5C 53.5,69.5 53.5,70.5 53.5,71.5C 49.6249,71.0845 45.9582,71.5845 42.5,73C 47.2041,73.6477 51.8708,73.481 56.5,72.5C 59.1667,72.5 61.8333,72.5 64.5,72.5C 61.5,73.1667 58.5,73.8333 55.5,74.5C 50.8228,74.8345 46.1561,75.3345 41.5,76C 38.135,76.5053 35.135,77.672 32.5,79.5C 31.7611,79.631 31.0944,79.4643 30.5,79C 40.0351,70.9006 51.0351,66.0672 63.5,64.5 Z"/></g>
<g><path style="opacity:0.161" fill="#4c2626" d="M 465.5,73.5 C 458.771,76.1291 451.771,78.2958 444.5,80C 445.737,80.2321 446.737,80.7321 447.5,81.5C 442.422,81.6629 441.755,80.4962 445.5,78C 452.138,76.3061 458.805,74.8061 465.5,73.5 Z"/></g>
<g><path style="opacity:0.988" fill="#812937" d="M 447.5,81.5 C 457.93,83.1342 468.263,82.8008 478.5,80.5C 478.5,79.1667 478.5,77.8333 478.5,76.5C 479.5,76.5 480.5,76.5 481.5,76.5C 481.664,73.8127 481.497,71.146 481,68.5C 478.006,70.3728 474.839,71.8728 471.5,73C 469.527,73.4955 467.527,73.6621 465.5,73.5C 470.934,71.1686 475.934,68.0019 480.5,64C 484.66,63.5767 486.327,65.5767 485.5,70C 485.66,76.1549 482.993,80.4883 477.5,83C 467.239,85.2323 457.239,84.7323 447.5,81.5 Z"/></g>
<g><path style="opacity:0.212" fill="#152d43" d="M 55.5,74.5 C 47.9717,76.2604 40.3051,77.9271 32.5,79.5C 35.135,77.672 38.135,76.5053 41.5,76C 46.1561,75.3345 50.8228,74.8345 55.5,74.5 Z"/></g>
<g><path style="opacity:1" fill="#c0474e" d="M 447.5,81.5 C 446.737,80.7321 445.737,80.2321 444.5,80C 451.771,78.2958 458.771,76.1291 465.5,73.5C 467.527,73.6621 469.527,73.4955 471.5,73C 474.839,71.8728 478.006,70.3728 481,68.5C 481.497,71.146 481.664,73.8127 481.5,76.5C 480.5,76.5 479.5,76.5 478.5,76.5C 478.5,77.8333 478.5,79.1667 478.5,80.5C 468.263,82.8008 457.93,83.1342 447.5,81.5 Z"/></g>
<g><path style="opacity:0.149" fill="#3b3939" d="M 74.5,83.5 C 74.5,83.1667 74.5,82.8333 74.5,82.5C 70.049,81.1729 65.2157,80.5063 60,80.5C 49.996,79.5457 40.496,81.2124 31.5,85.5C 34.4119,82.3911 38.0786,80.5577 42.5,80C 53.5406,78.2293 64.5406,78.2293 75.5,80C 76.985,81.7565 76.6516,82.9232 74.5,83.5 Z"/></g>
<g><path style="opacity:0.004" fill="#000000" d="M 155.5,80.5 C 156.833,81.1667 156.833,81.1667 155.5,80.5 Z"/></g>
<g><path style="opacity:0.004" fill="#000000" d="M 281.5,80.5 C 282.833,81.1667 282.833,81.1667 281.5,80.5 Z"/></g>
<g><path style="opacity:0.004" fill="#000000" d="M 293.5,81.5 C 294.833,82.1667 294.833,82.1667 293.5,81.5 Z"/></g>
<g><path style="opacity:1" fill="#dddddd" d="M 74.5,82.5 C 62.3834,85.5592 50.05,87.7259 37.5,89C 34.633,89.8007 31.9664,89.6341 29.5,88.5C 30.1667,87.5 30.8333,86.5 31.5,85.5C 40.496,81.2124 49.996,79.5457 60,80.5C 65.2157,80.5063 70.049,81.1729 74.5,82.5 Z"/></g>
<g><path style="opacity:0.004" fill="#000000" d="M 302.5,83.5 C 303.833,84.1667 303.833,84.1667 302.5,83.5 Z"/></g>
<g><path style="opacity:0.004" fill="#000000" d="M 290.5,84.5 C 291.833,85.1667 291.833,85.1667 290.5,84.5 Z"/></g>
<g><path style="opacity:0.004" fill="#000000" d="M 338.5,84.5 C 339.833,85.1667 339.833,85.1667 338.5,84.5 Z"/></g>
<g><path style="opacity:0.004" fill="#000000" d="M 500.5,87.5 C 501.833,88.1667 501.833,88.1667 500.5,87.5 Z"/></g>
<g><path style="opacity:1" fill="#b0b0b1" d="M 74.5,82.5 C 74.5,82.8333 74.5,83.1667 74.5,83.5C 74.6716,84.4916 74.3382,85.1583 73.5,85.5C 72.7109,85.7828 72.0442,86.2828 71.5,87C 56.8959,88.5445 42.5626,90.7112 28.5,93.5C 27.5041,93.4142 26.6708,93.7476 26,94.5C 25.6126,91.6955 26.7792,89.6955 29.5,88.5C 31.9664,89.6341 34.633,89.8007 37.5,89C 50.05,87.7259 62.3834,85.5592 74.5,82.5 Z"/></g>
<g><path style="opacity:0.898" fill="#848486" d="M 73.5,85.5 C 73.5,87.5 72.5,88.5 70.5,88.5C 65.6734,90.497 60.6734,91.997 55.5,93C 46.5062,93.4998 37.5062,93.6664 28.5,93.5C 42.5626,90.7112 56.8959,88.5445 71.5,87C 72.0442,86.2828 72.7109,85.7828 73.5,85.5 Z"/></g>
<g><path style="opacity:0.004" fill="#000000" d="M 311.5,90.5 C 312.833,91.1667 312.833,91.1667 311.5,90.5 Z"/></g>
<g><path style="opacity:0.004" fill="#000000" d="M 254.5,91.5 C 255.833,92.1667 255.833,92.1667 254.5,91.5 Z"/></g>
<g><path style="opacity:0.004" fill="#000000" d="M 446.5,92.5 C 447.833,93.1667 447.833,93.1667 446.5,92.5 Z"/></g>
<g><path style="opacity:0.051" fill="#2d2c2d" d="M 31.5,85.5 C 30.8333,86.5 30.1667,87.5 29.5,88.5C 26.7792,89.6955 25.6126,91.6955 26,94.5C 26.6708,93.7476 27.5041,93.4142 28.5,93.5C 37.5062,93.6664 46.5062,93.4998 55.5,93C 60.6734,91.997 65.6734,90.497 70.5,88.5C 69.2511,90.1361 67.5844,91.3028 65.5,92C 62.5285,92.7943 59.5285,93.461 56.5,94C 46.1396,94.2134 35.8063,94.7134 25.5,95.5C 24.8333,95.1667 24.1667,94.8333 23.5,94.5C 24.7877,90.2155 27.4544,87.2155 31.5,85.5 Z"/></g>
<g><path style="opacity:0.004" fill="#000000" d="M 14.5,94.5 C 15.8333,95.1667 15.8333,95.1667 14.5,94.5 Z"/></g>
<g><path style="opacity:0.004" fill="#000000" d="M 197.5,94.5 C 198.833,95.1667 198.833,95.1667 197.5,94.5 Z"/></g>
<g><path style="opacity:0.004" fill="#000000" d="M 140.5,95.5 C 141.833,96.1667 141.833,96.1667 140.5,95.5 Z"/></g>
<g><path style="opacity:0.004" fill="#000000" d="M 413.5,97.5 C 414.833,98.1667 414.833,98.1667 413.5,97.5 Z"/></g>
<g><path style="opacity:0.004" fill="#000000" d="M 53.5,98.5 C 54.8333,99.1667 54.8333,99.1667 53.5,98.5 Z"/></g>
<g><path style="opacity:0.004" fill="#000000" d="M 146.5,98.5 C 147.833,99.1667 147.833,99.1667 146.5,98.5 Z"/></g>
<g><path style="opacity:0.004" fill="#fe0000" d="M 461.5,98.5 C 462.833,99.1667 462.833,99.1667 461.5,98.5 Z"/></g>
<g><path style="opacity:0.004" fill="#000000" d="M 206.5,99.5 C 207.833,100.167 207.833,100.167 206.5,99.5 Z"/></g>
<g><path style="opacity:0.004" fill="#000000" d="M 324.5,101.5 C 323.833,100.167 323.833,100.167 324.5,101.5 Z"/></g>
</svg>
